<svg xmlns="http://www.w3.org/2000/svg" viewBox="8 17 82 63"><defs><linearGradient id="c" x1="0%" y1="0%" x2="100%" y2="100%"><stop offset="0%" stop-color="#c084fc"/><stop offset="100%" stop-color="#a855f7"/></linearGradient><linearGradient id="b" x1="0%" y1="0%" x2="100%" y2="100%"><stop offset="0%" stop-color="#9333ea"/><stop offset="100%" stop-color="#7e22ce"/></linearGradient><linearGradient id="a" x1="0%" y1="0%" x2="100%" y2="100%"><stop offset="0%" stop-color="#6b21a8"/><stop offset="100%" stop-color="#581c87"/></linearGradient></defs><g transform="translate(10 8)" fill="url(#a)"><path d="M8 22v-2q0-3 3-3h15q2.5 0 3.5 2.5L31 22Z"/><path d="M8 22h68q4 0 4 4v42q0 4-4 4H12q-4 0-4-4Z"/></g><g transform="translate(5 4)" fill="url(#b)"><path d="M8 22v-2q0-3 3-3h15q2.5 0 3.5 2.5L31 22Z"/><path d="M8 22h68q4 0 4 4v42q0 4-4 4H12q-4 0-4-4Z"/></g><path d="M8 22v-2q0-3 3-3h15q2.5 0 3.5 2.5L31 22Z" fill="url(#c)"/><path d="M8 22h68q4 0 4 4v42q0 4-4 4H12q-4 0-4-4Z" fill="url(#c)"/><path d="M45.991 65.754c.281 0 .739-.105 1.196-.352 9.984-5.607 13.429-7.98 13.429-14.396V37.558c0-1.845-.808-2.425-2.285-3.058-2.074-.861-8.789-3.27-10.863-3.99a4.7 4.7 0 0 0-1.477-.264c-.492 0-.984.141-1.459.264-2.074.632-8.789 3.146-10.863 3.99-1.477.615-2.285 1.213-2.285 3.058v13.448c0 6.415 3.463 8.771 13.43 14.396.457.246.896.352 1.177.352Zm0-3.2c-.263 0-.562-.105-1.09-.421-8.12-4.922-10.723-6.364-10.723-11.777V38.085c0-.598.124-.826.598-1.02 2.672-1.054 7.823-2.882 10.53-3.849q.395-.157.685-.157c.211 0 .422.052.704.157 2.707.968 7.804 2.918 10.529 3.85.474.175.597.421.597 1.02v12.269c0 5.414-2.619 6.838-10.722 11.777-.528.317-.827.422-1.108.422Z" fill="#fff" fill-opacity=".15" stroke="#fff" stroke-opacity=".9" stroke-width=".9" stroke-miterlimit="10"/><path fill="#fff" d="M49.814 53.002a1.85 1.85 0 0 1-.789-.178 1.82 1.82 0 0 1-1.055-1.658c0-.614.305-1.184.816-1.524l2.389-1.593a.38.38 0 0 0 .167-.295.38.38 0 0 0-.14-.31l-2.061-1.65a.375.375 0 0 1 .469-.586l2.06 1.651c.284.228.437.566.42.928a1.12 1.12 0 0 1-.499.886l-2.389 1.593a1.08 1.08 0 0 0-.482.9c0 .43.233.797.623.98s.821.127 1.151-.149l4.801-3.188c.278-.234.455-.613.455-1.016s-.177-.782-.487-1.04c-.032-.026-3.75-3.014-5.84-4.77a1.35 1.35 0 0 0-2.02.33l-2.086 9.51a.4.4 0 0 1-.04.103 2.1 2.1 0 0 1-3.184.582c-2.081-1.751-5.794-4.734-5.831-4.764a2.104 2.104 0 0 1-.005-3.236l4.801-3.19a1.79 1.79 0 0 1 1.916-.227 1.82 1.82 0 0 1 1.056 1.66c0 .613-.305 1.183-.816 1.523l-2.404 1.603a.374.374 0 0 0-.032.601l2.086 1.734a.375.375 0 1 1-.479.577l-2.086-1.734a1.12 1.12 0 0 1-.405-.924c.019-.36.201-.678.5-.878l2.404-1.602c.301-.202.482-.538.482-.9a1.06 1.06 0 0 0-.623-.98 1.06 1.06 0 0 0-1.151.148l-4.801 3.189c-.278.233-.455.613-.455 1.015s.177.783.487 1.04c.032.026 3.75 3.014 5.84 4.77.308.26.713.367 1.108.295a1.35 1.35 0 0 0 .913-.624l2.085-9.51a.4.4 0 0 1 .04-.104 2.1 2.1 0 0 1 3.184-.582c2.081 1.751 5.794 4.734 5.831 4.764a2.105 2.105 0 0 1 .005 3.237l-4.801 3.188a1.75 1.75 0 0 1-1.127.405"/></svg>